<?xml version="1.0" encoding="utf-8"?>
<!-- Generator: Adobe Illustrator 23.0.1, SVG Export Plug-In . SVG Version: 6.00 Build 0)  -->
<svg version="1.1" id="Layer_1" xmlns="http://www.w3.org/2000/svg" xmlns:xlink="http://www.w3.org/1999/xlink" x="0px" y="0px"
	 viewBox="0 0 900 900" style="enable-background:new 0 0 900 900;" xml:space="preserve">
<style type="text/css">
	.st0{fill:#FFFFFF;}
</style>
<g>
	<path class="st0" d="M253.31,333.56c12.65-8.7,37.51-40.1,37.51-51.21c0-5.8-2.18-11.6-10.9-11.6
		c-38.38,0-133.02,73.44-133.02,119.34c0,5.31,1.74,10.63,10.03,10.63c17.01,0,25.3-2.9,46.67-2.9s39.69,11.6,49.28,25.61
		c40.13-13.53,61.93-16.91,66.29-16.91c6.11,0,8.29,3.86,8.29,9.18c0,2.9-2.18,9.66-9.16,10.15c-6.54,0.96-22.68,1.93-58.44,14.49
		c0.44,2.9,0.44,5.32,0.44,8.21c0,93.25-97.26,203.41-153.96,203.41c-29.22,0-48.41-19.81-48.41-49.77
		c0-31.89,23.55-74.89,82.87-121.76c30.09-23.68,55.39-37.69,81.99-48.32c-8.29-7.25-17.01-11.11-29.66-11.11
		c-16.57,0-32.71,3.86-50.59,3.86c-13.52,0-30.97-10.15-30.97-31.89c0-65.71,117.32-144.95,173.15-144.95
		c14.39,0,30.53,9.66,30.53,28.03c0,25.12-41.87,71.03-51.03,81.17c-6.11,6.28-10.9,10.63-17.88,10.63
		c-7.41,0-11.34-4.83-11.34-13.05C234.99,346.6,239.79,343.22,253.31,333.56z M236.3,456.77c0.66-2.3-2.15-1.92-2.62-1.93
		c-25.73,10.15-54.08,22.23-82.43,45.9c-52.34,43.49-68.72,72.97-68.04,94.22c0.47,14.52,7.01,21.76,24.86,16.91
		C160.01,597.74,216.7,524.91,236.3,456.77z"/>
	<path class="st0" d="M369.76,415.21c0,3.38,1.31,14.5,5.67,14.5c10.9,0,18.32-3.38,26.17-7.25c3.92-1.93,10.03-6.28,12.65-6.28
		c5.23,0,8.29,2.42,8.29,8.7c0,5.8-6.54,12.08-20.94,19.81c-13.96,7.25-31.84,8.21-36.2,8.21c-10.03,28.51-29.66,65.71-60.62,65.71
		c-13.08,0-25.73-11.11-25.73-32.86c0-45.42,36.64-87.94,65.86-87.94C361.91,397.82,369.76,407,369.76,415.21z M340.1,432.61
		c0-2.9,0.87-6.76,1.75-9.66c-17.45,0.96-41.43,34.3-41.43,63.78c0,7.25,4.8,12.56,9.16,12.56c16.14,0,37.51-43,37.51-55.08
		C344.46,443.72,340.1,437.92,340.1,432.61z"/>
	<path class="st0" d="M422.53,368.83c3.49,0,7.85-0.48,11.78-1.93c15.26-29.47,22.24-45.42,30.09-57.01
		c7.42-11.6,12.65-17.39,19.19-17.39c7.85,0,10.9,3.86,10.9,11.11c0,6.28-1.74,10.15-10.47,17.88c-6.11,4.83-8.72,12.08-20.93,36.24
		c7.41-2.42,16.14-4.35,24.86-4.35c16.14,0,23.99,4.83,23.99,15.94c0,9.66-6.98,20.78-13.52,20.78c-5.23,0-6.54-2.9-6.54-5.8
		c0-2.42,0.87-4.35,0.87-6.76c0-1.93-3.92-3.86-9.16-3.86c-8.72,0-22.68,3.86-34.46,8.21c-24.42,47.83-47.54,104.36-47.54,129.01
		c0,4.35,3.05,9.18,3.05,12.08c0,4.35-3.92,11.11-10.47,11.11c-7.85,0-12.21-6.76-12.21-20.29c0-25.61,21.37-80.69,41-123.69
		c-20.93,0-25.73-3.38-25.73-11.11c0-7.73,4.36-14.01,12.21-14.01C413.8,364.96,417.29,368.83,422.53,368.83z"/>
	<path class="st0" d="M565.58,425.84c3.92,0,6.98,2.42,6.98,7.25c0,5.31-2.18,8.7-7.41,15.94c-20.5,28.02-55.83,69.58-104.24,69.58
		c-14.39,0-26.6-12.56-26.6-33.82c0-2.9-2.18-4.35-2.18-9.66c0-4.83,3.93-10.63,8.29-12.08c16.57-43,46.67-64.26,69.35-64.26
		c9.16,0,19.19,7.73,19.19,18.36c0,25.13-36.64,53.63-65.42,60.88c-5.67,1.45-7.41,4.83-7.41,8.21c0,3.87,3.92,13.05,12.21,13.05
		c36.63,0,65.86-37.21,81.56-58.46C555.11,433.57,560.78,425.84,565.58,425.84z M462.21,460.63c15.7-3.38,45.36-27.06,45.36-35.27
		c0-2.9-0.87-4.83-3.49-4.83C493.62,420.53,470.5,446.13,462.21,460.63z"/>
	<path class="st0" d="M583.46,405.55c0,3.38-3.49,14.01-7.42,25.13c17.88-20.29,34.02-35.75,45.36-35.75
		c9.59,0,16.57,6.28,16.57,18.36c0,16.43-3.49,30.44-16.14,30.44c-4.8,0-8.72-3.86-8.72-9.66c0-4.35,3.05-10.63,3.05-13.04
		c0-1.45-0.44-2.42-2.62-2.42c-5.67,0-33.58,29.47-47.98,52.66c-3.92,6.28-8.72,16.91-12.65,27.54
		c-3.49,9.66-7.41,18.84-10.03,18.84c-5.23,0-11.34-5.32-11.34-12.08c0-5.32,6.11-25.12,13.08-43c7.41-19.33,13.52-37.2,15.7-45.9
		c3.49-12.56,6.54-19.81,13.52-19.81C579.53,396.85,583.46,400.23,583.46,405.55z"/>
	<path class="st0" d="M732.61,425.84c3.92,0,6.98,2.42,6.98,7.25c0,5.31-2.18,8.7-7.41,15.94c-20.5,27.54-59.75,67.64-81.99,67.64
		c-9.16,0-19.19-8.7-19.19-25.61c0-21.26,22.24-68.61,25.73-75.86c5.23-9.66,9.59-17.39,15.7-17.39c6.11,0,10.9,3.87,10.9,10.15
		c0,6.76-3.05,10.15-5.67,14.5c-12.65,22.71-24.86,56.05-24.86,65.71c0,3.38,2.18,7.73,6.11,7.73c11.78,0,43.18-32.85,58.01-55.08
		C722.15,433.57,727.82,425.84,732.61,425.84z M727.82,325.83c0,12.56-11.78,20.29-17.45,20.29c-6.98,0-9.59-10.15-9.59-17.39
		c0-7.73,6.98-17.39,16.57-17.39C722.58,311.33,727.82,314.23,727.82,325.83z"/>
	<path class="st0" d="M835.1,468.84c3.92,0,6.98,2.41,6.98,7.25c0,5.32-5.23,11.11-12.21,18.36c-11.78,12.08-25.3,18.36-35.33,18.36
		c-14.39,0-21.37-11.11-21.37-24.64c0-5.31,0.44-10.14,0.87-16.91c-12.65,14.01-42.31,46.87-61.93,46.87
		c-5.67,0-14.83-8.7-14.83-21.26c0-49.77,50.59-98.08,83.74-98.08c6.98,0,13.52,4.83,17.88,10.63c1.31,0,6.11-9.66,12.65-9.66
		c8.29,0,13.08,5.31,13.08,12.08c0,8.21-15.7,28.99-20.94,41.55c-4.36,9.66-7.85,20.29-7.85,27.06c0,4.83,1.75,10.14,6.98,10.14
		c4.36,0,10.47-3.38,17.01-9.66C825.94,474.64,830.31,468.84,835.1,468.84z M720.83,488.17c0,2.42,1.75,3.87,3.93,3.87
		c6.54,0,60.19-51.7,60.19-60.88c0-5.31-3.93-9.66-9.59-9.66C757.91,421.49,720.83,465.94,720.83,488.17z"/>
</g>
</svg>
